<svg xmlns="http://www.w3.org/2000/svg" class="w-8 h-8 md:w-12 md:h-12 pr-2 inline align-middle" viewBox="0 0 64 64"><path d="M13.577 41.225a1 1 0 0 0-1.799.875 21.209 21.209 0 0 0 6.313 7.649 1 1 0 0 0 1.2-1.6 19.183 19.183 0 0 1-5.714-6.924ZM21.68 49.95a1 1 0 0 0 0 2 1 1 0 0 0 0-2Z"/><path d="M13.014 22.871a7 7 0 0 0-.495 7.08H8.68a3.003 3.003 0 0 0-3 3 25.035 25.035 0 0 0 15.815 23.243 3.005 3.005 0 0 0 1.183 5.755h16a3.004 3.004 0 0 0 1.196-5.747A25.02 25.02 0 0 0 55.68 32.95a3.003 3.003 0 0 0-3-3h-3.02a8.323 8.323 0 0 0-2.609-7.735l3.608-6.248a4.011 4.011 0 0 0 4.533-1.853l3.5-6.062a4 4 0 0 0-6.928-4l-3.5 6.062a3.982 3.982 0 0 0 .669 4.841l-3.614 6.26c-4.993-2.047-11.412 2.923-12.41 8.735h-4.26l-3.815-6.607a6.999 6.999 0 0 0-6.624-3.472L10.37 6.29a3 3 0 0 0-5.197 3ZM38.678 57.95a1 1 0 0 1 0 2h-16a1 1 0 0 1 0-2h16Zm7.746-24.648a8.737 8.737 0 0 1-6.085 4.494 24.023 24.023 0 0 0 6.938-12.007 8.74 8.74 0 0 1-.853 7.513Zm-9.235 1.651c.589-3.97 5.688-11.449 7.922-11.606 1.932 1.172-4.104 13.481-7.882 13.883-.075-.043-.38-.612-.04-2.277Zm12.808-23.838 3.5-6.062a2 2 0 0 1 3.463 2l-3.5 6.062a2 2 0 0 1-3.463-2Zm-7.892 11.7a23.943 23.943 0 0 0-6.92 12.014c-2.055-4.663 2.183-11.539 6.92-12.015Zm-9.412 9.136c.377 11.47 13.604 9.446 16.504 0h3.483a1.001 1.001 0 0 1 1 1 22.848 22.848 0 0 1-6.736 16.262C32.614 63.643 7.638 53.289 7.68 32.95a.988.988 0 0 1 1-1h4.957l4.072 7.053a3.002 3.002 0 0 0 4.099 1.099l6.928-4a3.007 3.007 0 0 0 1.068-4.152ZM6.806 7.531a1.007 1.007 0 0 1 1.831-.24l8.175 14.158a1.01 1.01 0 0 0 1.048.484 5 5 0 0 1 5.242 2.41l5 8.66a1.001 1.001 0 0 1-.366 1.366l-6.928 4a1.004 1.004 0 0 1-1.367-.366l-5-8.66a5.005 5.005 0 0 1 .533-5.744 1 1 0 0 0 .106-1.15L6.905 8.29a.994.994 0 0 1-.1-.759Z"/></svg>